<svg width="29" height="25" viewBox="0 0 29 25" fill="none" xmlns="http://www.w3.org/2000/svg">
<path d="M5.5 5.44737C5.5 8.45068 7.96767 10.8947 11 10.8947C14.0323 10.8947 16.5 8.45068 16.5 5.44737C16.5 2.44405 14.0323 0 11 0C7.96767 0 5.5 2.44405 5.5 5.44737ZM20.7778 23H22V21.7895C22 17.1181 18.161 13.3158 13.4444 13.3158H8.55556C3.83778 13.3158 0 17.1181 0 21.7895V23H20.7778Z" fill="#ADACB1"/>
<mask id="path-2-outside-1_681_13844" maskUnits="userSpaceOnUse" x="13" y="9" width="16" height="16" fill="black">
<rect fill="white" x="13" y="9" width="16" height="16"/>
<path fill-rule="evenodd" clip-rule="evenodd" d="M22.2 12.2C22.2 11.5373 21.6627 11 21 11C20.3373 11 19.8 11.5373 19.8 12.2V15.8008H16.2C15.5373 15.8008 15 16.338 15 17.0008C15 17.6635 15.5373 18.2008 16.2 18.2008H19.8V21.8C19.8 22.4627 20.3373 23 21 23C21.6627 23 22.2 22.4627 22.2 21.8V18.2008H25.8C26.4627 18.2008 27 17.6635 27 17.0008C27 16.338 26.4627 15.8008 25.8 15.8008H22.2V12.2Z"/>
</mask>
<path fill-rule="evenodd" clip-rule="evenodd" d="M22.2 12.2C22.2 11.5373 21.6627 11 21 11C20.3373 11 19.8 11.5373 19.8 12.2V15.8008H16.2C15.5373 15.8008 15 16.338 15 17.0008C15 17.6635 15.5373 18.2008 16.2 18.2008H19.8V21.8C19.8 22.4627 20.3373 23 21 23C21.6627 23 22.2 22.4627 22.2 21.8V18.2008H25.8C26.4627 18.2008 27 17.6635 27 17.0008C27 16.338 26.4627 15.8008 25.8 15.8008H22.2V12.2Z" fill="#ADACB1"/>
<path d="M19.8 15.8008V17.3008H21.3V15.8008H19.8ZM19.8 18.2008H21.3V16.7008H19.8V18.2008ZM19.8 21.8L21.3 21.8V21.8H19.8ZM22.2 18.2008V16.7008H20.7V18.2008H22.2ZM22.2 15.8008H20.7V17.3008H22.2V15.8008ZM21 12.5C20.8343 12.5 20.7 12.3657 20.7 12.2H23.7C23.7 10.7088 22.4912 9.5 21 9.5V12.5ZM21.3 12.2C21.3 12.3657 21.1657 12.5 21 12.5V9.5C19.5088 9.5 18.3 10.7088 18.3 12.2H21.3ZM21.3 15.8008V12.2H18.3V15.8008H21.3ZM16.2 17.3008H19.8V14.3008H16.2V17.3008ZM16.5 17.0008C16.5 17.1665 16.3657 17.3008 16.2 17.3008V14.3008C14.7088 14.3008 13.5 15.5096 13.5 17.0008H16.5ZM16.2 16.7008C16.3657 16.7008 16.5 16.8351 16.5 17.0008H13.5C13.5 18.492 14.7088 19.7008 16.2 19.7008V16.7008ZM19.8 16.7008H16.2V19.7008H19.8V16.7008ZM21.3 21.8V18.2008H18.3V21.8H21.3ZM21 21.5C21.1657 21.5 21.3 21.6343 21.3 21.8L18.3 21.8C18.3 23.2912 19.5088 24.5 21 24.5V21.5ZM20.7 21.8C20.7 21.6343 20.8343 21.5 21 21.5V24.5C22.4912 24.5 23.7 23.2912 23.7 21.8H20.7ZM20.7 18.2008V21.8H23.7V18.2008H20.7ZM25.8 16.7008H22.2V19.7008H25.8V16.7008ZM25.5 17.0008C25.5 16.8351 25.6343 16.7008 25.8 16.7008V19.7008C27.2912 19.7008 28.5 18.492 28.5 17.0008H25.5ZM25.8 17.3008C25.6343 17.3008 25.5 17.1665 25.5 17.0008H28.5C28.5 15.5096 27.2912 14.3008 25.8 14.3008V17.3008ZM22.2 17.3008H25.8V14.3008H22.2V17.3008ZM20.7 12.2V15.8008H23.7V12.2H20.7Z" fill="white" mask="url(#path-2-outside-1_681_13844)"/>
</svg>
