<svg width="24" height="29" viewBox="0 0 24 29" fill="none" xmlns="http://www.w3.org/2000/svg">
<path d="M24 22.6654L23.7262 22.4183C22.9493 21.7106 22.2694 20.8989 21.7047 20.0053C21.088 18.7721 20.7183 17.4253 20.6175 16.0441V11.9757C20.6228 9.80615 19.8532 7.70927 18.4532 6.07905C17.0533 4.44882 15.1193 3.39747 13.0148 3.12252V2.06014C13.0148 1.76855 12.9015 1.4889 12.6999 1.28271C12.4982 1.07653 12.2247 0.960693 11.9396 0.960693C11.6544 0.960693 11.381 1.07653 11.1793 1.28271C10.9777 1.4889 10.8644 1.76855 10.8644 2.06014V3.13899C8.77873 3.43376 6.86817 4.49147 5.4866 6.11622C4.10504 7.74096 3.34609 9.82265 3.35034 11.9757V16.0441C3.24947 17.4253 2.87982 18.7721 2.26309 20.0053C1.70809 20.8967 1.03908 21.7082 0.273826 22.4183L0 22.6654V24.9878H24V22.6654Z" fill="#ADACB1"/>
<path d="M8.85889 25.6663C8.9665 26.5794 9.35198 27.4159 9.94411 28.0214C10.5362 28.6269 11.295 28.9605 12.0804 28.9605C12.8657 28.9605 13.6245 28.6269 14.2166 28.0214C14.8088 27.4159 15.1942 26.5794 15.3018 25.6663H8.85889Z" fill="#ADACB1"/>
</svg>
