<svg width="22" height="23" viewBox="0 0 22 23" fill="none" xmlns="http://www.w3.org/2000/svg">
<path d="M0 21.2352C0 21.722 0.39325 22.1152 0.88 22.1152H21.12C21.6068 22.1152 22 21.722 22 21.2352V9.68523H0V21.2352ZM21.12 2.09523H16.5V0.335234C16.5 0.214234 16.401 0.115234 16.28 0.115234H14.74C14.619 0.115234 14.52 0.214234 14.52 0.335234V2.09523H7.48V0.335234C7.48 0.214234 7.381 0.115234 7.26 0.115234H5.72C5.599 0.115234 5.5 0.214234 5.5 0.335234V2.09523H0.88C0.39325 2.09523 0 2.48848 0 2.97523V7.81523H22V2.97523C22 2.48848 21.6068 2.09523 21.12 2.09523Z" fill="#6732FF"/>
</svg>
