<?xml version="1.0" encoding="UTF-8"?>
<svg width='68.3869px' height='44.8821px' id="Layer_1" xmlns="http://www.w3.org/2000/svg" viewBox="0 0 68.39 44.88">
  <path d="M34.69,7.57c.08-.05,.16-.1,.24-.14h0c.36-.21,.73-.43,1.04-.86,.37-.52,.89-1.25-.02-1.9-.3,.07-.58,.34-.88,.65-.37,.37-.79,.78-1.34,.91-.3,.07-.71,.23-1.13,.39-.88,.34-1.86,.71-2.23,.45l-.21-.15-.58,.81-1.77,2.47-.44,.62-.14,.19s.02,.02,.03,.02c.46,.34,.78,.83,1.12,1.36,.4,.62,.83,1.29,1.58,1.82l.73,.52c.69,.49,1.45,.46,2.07-.72,.42,.03,1.09-.44,1.18-1.08,.32-.06,.57-.23,.76-.44,.26-.28,.39-.64,.37-.93,.08,.06,.23,.04,.4-.03,.22-.09,.46-.27,.63-.5,.3-.42,.27-1.06-.14-1.36l-1.2-.86-.81-.58c.23-.32,.49-.52,.76-.68Z" style="fill:#f3f2f4; fill-rule:evenodd;"/>
  <path d="M25.61,9.73c-.07,.05-.14,.11-.19,.19-.05,.08-.09,.16-.11,.24-.06,.24,.01,.48,.2,.62,.19,.14,.45,.12,.65-.01,.07-.05,.14-.11,.19-.19,.03-.04,.06-.09,.08-.14,.01-.03,.03-.07,.03-.1,.06-.24-.01-.48-.2-.62s-.44-.12-.65,.01Z" style="fill:#f3f2f4; fill-rule:evenodd;"/>
  <path d="M45.94,13.73l.24-.36c-.85-.56-1.51-1.22-2.11-1.98l-.4,.26c.62,.8,1.36,1.48,2.27,2.08Z" style="fill:#f3f2f4; fill-rule:evenodd;"/>
  <path d="M29.33,6.32l.18-.24-.85-.61-2.29,3.2c.16,.05,.32,.12,.48,.23,.15,.11,.28,.24,.37,.38l2.11-2.96Z" style="fill:#f3f2f4; fill-rule:evenodd;"/>
  <path d="M54.32,25.63l-.39,.29c.64,.85,1.46,1.55,2.27,2.08l.25-.38c-.82-.54-1.49-1.2-2.14-1.99Z" style="fill:#f3f2f4; fill-rule:evenodd;"/>
  <path d="M36.87,0H0L68.39,44.88V20.68L36.87,0Zm3.31,12.86l1.25,.82,.25-.38c-.75-1.1-.57-2.13-.03-2.94,.78-1.21,2.3-1.86,4.85-.19,2.54,1.67,2.56,3.26,1.75,4.52-.55,.82-1.41,1.39-2.71,1.15l-.25,.38c.55,.34,1.1,.68,1.68,1.03l2.98-4.54,3.39,2.22-1.18,1.81,.94,.62-1.94,2.96-.94-.62-1.45,2.21c-1.12-.21-2.84-.95-3.77-1.65l.58-.88c-1.98-1.18-3.76-2.36-5.65-3.6-.38-.25-.77-.51-1.16-.76l1.42-2.16Zm-3.49-4.23s.09,.07,.14,.11c.81,.71,.83,2.04,.18,2.96-.3,.42-.65,.7-1.05,.91-.27,.56-.68,.99-1.17,1.26-.32,.57-.84,1.01-1.39,1.24-.9,1.22-2.19,1.61-3.69,.54l-.43-.31c-1.21-.87-1.68-1.68-2.05-2.33-.05-.08-.09-.16-.13-.23-.04-.08-.09-.15-.14-.22-.14-.22-.29-.4-.49-.56-.29,.25-.69,.31-.98,.1l-1.24-.89c-.34-.24-.39-.76-.12-1.15l.27-.38,.23-.32,.23-.32,3.04-4.26c.28-.39,.78-.51,1.12-.26l1.91,1.37c.33-.06,.81-.24,1.31-.43,.47-.18,.95-.36,1.34-.46,.14-.03,.36-.24,.63-.49,.66-.61,1.62-1.51,2.47-.91,1.11,.8,1.34,2.02,.2,3.63-.05,.07-.11,.14-.16,.21-.24,.3-.5,.52-.74,.7l.71,.5Zm5.12,13.71c-3.72-2.44-4.97-4.46-3.02-6.93l3.64,2.39c-.32,.49,.08,1.33,1.35,2.21,1.55,1.09,3.12,1.97,4.7,2.3l-1.65,2.52c-1.73-.56-3.02-1.17-5.01-2.48Zm21.02,4.33c-1.3-.48-2.8-1.19-4.28-2.17l-.26,.39c1.48,.97,2.97,1.7,4.28,2.18l-1.65,2.52c-.4-.16-.83-.33-1.26-.54l-.44,.66,1.13,.74-1.74,2.66-10.63-6.98,1.74-2.66,1.13,.74,.63-.97c-.46-1-.29-2.02,.43-3.11l.67-1.03c1.6,1.05,3.4,1.68,4.64,1.88l.28-.43c-1.21-.2-3.06-.77-4.67-1.83l1.9-2.9,10.63,6.98-2.53,3.85Z" style="fill:#f3f2f4; fill-rule:evenodd;"/>
</svg>