<svg width="26" height="25" viewBox="0 0 26 25" fill="none" xmlns="http://www.w3.org/2000/svg">
<path d="M25.4619 12.2952L13.6487 0.273787C13.5636 0.186997 13.4626 0.118142 13.3514 0.0711618C13.2402 0.024182 13.1209 0 13.0005 0C12.8801 0 12.7609 0.024182 12.6497 0.0711618C12.5385 0.118142 12.4374 0.186997 12.3524 0.273787L0.53918 12.2952C0.195022 12.6457 0 13.1217 0 13.6182C0 14.6492 0.823109 15.4874 1.8355 15.4874H3.08021V24.0654C3.08021 24.5823 3.49033 25 3.99796 25H11.165V18.4577H14.3772V25H22.0031C22.5107 25 22.9209 24.5823 22.9209 24.0654V15.4874H24.1656C24.6531 15.4874 25.1206 15.2918 25.4648 14.9384C26.1789 14.2082 26.1789 13.0253 25.4619 12.2952V12.2952Z" fill="#6732FF"/>
</svg>
