<svg width="21" height="19" viewBox="0 0 21 19" fill="none" xmlns="http://www.w3.org/2000/svg">
<path d="M10.0759 0C15.6407 0 20.1519 3.4699 20.1519 7.75139C20.1519 12.0319 15.6407 15.5018 10.0759 15.5018C9.52183 15.5021 8.96827 15.4673 8.41868 15.3977L4.18871 18.1279C3.70794 18.3789 3.53809 18.3514 3.73577 17.7368L4.59175 14.2537C1.82806 12.871 0 10.475 0 7.75139C0 3.47084 4.51114 0 10.0759 0ZM15.7444 7.63301L17.155 6.28445C17.2364 6.20103 17.2818 6.08968 17.2817 5.97387C17.2815 5.85806 17.2358 5.74682 17.1542 5.66359C17.0726 5.58036 16.9615 5.53163 16.8442 5.52768C16.7269 5.52372 16.6127 5.56484 16.5255 5.64237L14.6754 7.40952V5.9492C14.6754 5.83065 14.6276 5.71696 14.5427 5.63313C14.4578 5.5493 14.3425 5.50221 14.2224 5.50221C14.1023 5.50221 13.9871 5.5493 13.9021 5.63313C13.8172 5.71696 13.7695 5.83065 13.7695 5.9492V8.37074C13.7525 8.43982 13.7525 8.51191 13.7695 8.58098V9.94375C13.7695 10.0623 13.8172 10.176 13.9021 10.2598C13.9871 10.3437 14.1023 10.3907 14.2224 10.3907C14.3425 10.3907 14.4578 10.3437 14.5427 10.2598C14.6276 10.176 14.6754 10.0623 14.6754 9.94375V8.65296L15.0851 8.26184L16.4554 10.1871C16.4897 10.2352 16.5331 10.2761 16.5834 10.3076C16.6336 10.3391 16.6897 10.3605 16.7483 10.3706C16.8069 10.3808 16.867 10.3794 16.9251 10.3666C16.9832 10.3538 17.0382 10.3298 17.0869 10.296C17.1356 10.2623 17.1771 10.2194 17.209 10.1698C17.2409 10.1202 17.2626 10.0649 17.2728 10.007C17.2831 9.94917 17.2817 9.88988 17.2687 9.83255C17.2557 9.77522 17.2314 9.72097 17.1972 9.6729L15.7444 7.63207V7.63301ZM12.9058 9.45509H11.5048V5.96341C11.4994 5.84854 11.4494 5.74013 11.3652 5.66072C11.2809 5.5813 11.1689 5.53698 11.0523 5.53698C10.9358 5.53698 10.8238 5.5813 10.7395 5.66072C10.6553 5.74013 10.6052 5.84854 10.5999 5.96341V9.90208C10.5999 10.1483 10.8014 10.3491 11.0519 10.3491H12.9058C13.026 10.3491 13.1412 10.302 13.2261 10.2182C13.311 10.1343 13.3588 10.0206 13.3588 9.90208C13.3588 9.78353 13.311 9.66984 13.2261 9.58601C13.1412 9.50218 13.026 9.45509 12.9058 9.45509ZM7.28538 8.42094L7.95327 6.80437L8.5655 8.42094H7.28538ZM9.70648 8.88309L9.7084 8.86793C9.70818 8.75532 9.66461 8.647 9.58653 8.56488L8.58278 5.91322C8.5407 5.78685 8.46055 5.67617 8.35304 5.59596C8.24552 5.51575 8.11576 5.46983 7.9811 5.46433C7.84545 5.46374 7.71283 5.50393 7.60089 5.57955C7.48895 5.65517 7.403 5.76263 7.35447 5.88765L5.76056 9.74677C5.73806 9.80112 5.72663 9.85931 5.72693 9.91801C5.72722 9.97672 5.73923 10.0348 5.76226 10.0889C5.78529 10.143 5.81891 10.1922 5.86118 10.2335C5.90345 10.2748 5.95355 10.3075 6.00862 10.3297C6.06369 10.3519 6.12265 10.3631 6.18213 10.3629C6.24162 10.3626 6.30047 10.3507 6.35531 10.328C6.41016 10.3053 6.45993 10.2721 6.50179 10.2304C6.54364 10.1886 6.57676 10.1392 6.59926 10.0849L6.91593 9.31493H8.90233L9.18925 10.0725C9.20876 10.1292 9.23958 10.1814 9.2799 10.226C9.32022 10.2707 9.36921 10.3069 9.42397 10.3325C9.47873 10.3582 9.53815 10.3727 9.5987 10.3753C9.65925 10.3778 9.71971 10.3684 9.77649 10.3474C9.83327 10.3265 9.88522 10.2946 9.92926 10.2535C9.9733 10.2124 10.0085 10.163 10.0329 10.1082C10.0572 10.0534 10.0702 9.9944 10.071 9.93459C10.0718 9.87478 10.0604 9.81542 10.0375 9.76003L9.70648 8.88309ZM6.51865 5.96815C6.51865 5.84976 6.47106 5.73621 6.38633 5.65241C6.30159 5.5686 6.18663 5.5214 6.06667 5.52115H2.95273C2.8326 5.52115 2.7174 5.56824 2.63245 5.65207C2.54751 5.7359 2.49979 5.84959 2.49979 5.96815C2.49979 6.0867 2.54751 6.20039 2.63245 6.28422C2.7174 6.36805 2.8326 6.41514 2.95273 6.41514H4.06588V9.95322C4.06588 10.0718 4.1136 10.1855 4.19854 10.2693C4.28348 10.3531 4.39869 10.4002 4.51882 10.4002C4.63894 10.4002 4.75415 10.3531 4.83909 10.2693C4.92403 10.1855 4.97175 10.0718 4.97175 9.95322V6.41514H6.06571C6.18584 6.41514 6.30105 6.36805 6.38599 6.28422C6.47093 6.20039 6.51865 6.0867 6.51865 5.96815Z" fill="#6732FF"/>
</svg>
