<svg width="20" height="20" viewBox="0 0 20 20" fill="none" xmlns="http://www.w3.org/2000/svg">
<path fill-rule="evenodd" clip-rule="evenodd" d="M19.7712 0.141033C19.8428 0.199705 19.9005 0.273536 19.94 0.357195C19.9796 0.440855 20.0001 0.532256 20 0.624798V18.1253C19.9999 18.2698 19.9498 18.4097 19.8582 18.5214C19.7666 18.633 19.6391 18.7095 19.4975 18.7378L13.2475 19.9879C13.1666 20.004 13.0834 20.004 13.0025 19.9879L6.875 18.7628L0.7475 19.9879C0.656861 20.006 0.563332 20.0038 0.473651 19.9814C0.38397 19.959 0.30037 19.917 0.228874 19.8584C0.157378 19.7998 0.0997667 19.7261 0.0601897 19.6426C0.0206127 19.5591 5.58159e-05 19.4678 0 19.3754L0 1.87484C8.72276e-05 1.7304 0.0501951 1.59045 0.141804 1.47878C0.233413 1.36712 0.360869 1.29063 0.5025 1.26232L6.7525 0.0122792C6.83337 -0.00388465 6.91663 -0.00388465 6.9975 0.0122792L13.125 1.23732L19.2525 0.0122792C19.3431 -0.00595152 19.4366 -0.00385957 19.5263 0.0184044C19.616 0.0406684 19.6997 0.0825503 19.7712 0.141033ZM12.5 2.38735L7.5 1.38732V17.6128L12.5 18.6128V2.38735ZM13.75 18.6128L18.75 17.6128V1.38732L13.75 2.38735V18.6128ZM6.25 17.6128V1.38732L1.25 2.38735V18.6128L6.25 17.6128Z" fill="white"/>
</svg>
