<svg width="16" height="20" viewBox="0 0 16 20" fill="none" xmlns="http://www.w3.org/2000/svg">
<path d="M3.63636 4.28571V5.71429H2.54545C1.87036 5.71429 1.22291 5.97768 0.745547 6.44652C0.268181 6.91536 0 7.55124 0 8.21429V17.5C0 18.163 0.268181 18.7989 0.745547 19.2678C1.22291 19.7366 1.87036 20 2.54545 20H13.4545C14.1296 20 14.7771 19.7366 15.2545 19.2678C15.7318 18.7989 16 18.163 16 17.5V8.21429C16 7.55124 15.7318 6.91536 15.2545 6.44652C14.7771 5.97768 14.1296 5.71429 13.4545 5.71429H12.3636V4.28571C12.3636 3.14907 11.9039 2.05898 11.0856 1.25526C10.2672 0.451529 9.15731 0 8 0C6.84269 0 5.73278 0.451529 4.91444 1.25526C4.0961 2.05898 3.63636 3.14907 3.63636 4.28571ZM8 1.42857C8.77154 1.42857 9.51148 1.72959 10.057 2.26541C10.6026 2.80123 10.9091 3.52795 10.9091 4.28571V5.71429H5.09091V4.28571C5.09091 3.52795 5.3974 2.80123 5.94296 2.26541C6.48852 1.72959 7.22846 1.42857 8 1.42857ZM8 14.2857C7.61423 14.2857 7.24426 14.1352 6.97148 13.8673C6.6987 13.5994 6.54545 13.236 6.54545 12.8571C6.54545 12.4783 6.6987 12.1149 6.97148 11.847C7.24426 11.5791 7.61423 11.4286 8 11.4286C8.38577 11.4286 8.75574 11.5791 9.02852 11.847C9.3013 12.1149 9.45455 12.4783 9.45455 12.8571C9.45455 13.236 9.3013 13.5994 9.02852 13.8673C8.75574 14.1352 8.38577 14.2857 8 14.2857Z" fill="#AC8EFF"/>
</svg>
