<svg width="26" height="23" viewBox="0 0 26 23" fill="none" xmlns="http://www.w3.org/2000/svg">
<path d="M1 1L22.3333 22M11.864 6.41144C12.557 6.20922 13.2927 6.19561 13.9929 6.37205C14.6931 6.5485 15.3316 6.9084 15.8406 7.41352C16.3497 7.91863 16.7101 8.55007 16.8838 9.24073C17.0574 9.93138 17.0377 10.6554 16.8267 11.3359M8.21333 3.46487C13.8987 0.687625 20.0227 2.92937 25 10.1875C23.6307 12.1838 22.1747 13.8008 20.6653 15.0385M17.32 17.1254C11.768 19.5614 5.84133 17.2488 1 10.1875C2.34667 8.224 3.77733 6.62669 5.26133 5.39688" stroke="black" stroke-width="1.5" stroke-linecap="round" stroke-linejoin="round"/>
</svg>
