<svg width="25" height="25" viewBox="0 0 25 25" fill="none" xmlns="http://www.w3.org/2000/svg">
<path d="M2.48565 24.8546H17.3996V22.369H2.48565V7.45508H0V22.369C0 23.7398 1.11481 24.8546 2.48565 24.8546Z" fill="#6732FF"/>
<path d="M22.371 0H7.45709C6.08625 0 4.97144 1.11482 4.97144 2.48565V17.3996C4.97144 18.7704 6.08625 19.8852 7.45709 19.8852H22.371C23.7418 19.8852 24.8567 18.7704 24.8567 17.3996V2.48565C24.8567 1.11482 23.7418 0 22.371 0ZM19.8854 11.1854H16.1569V14.9139H13.6712V11.1854H9.94274V8.69978H13.6712V4.9713H16.1569V8.69978H19.8854V11.1854Z" fill="#6732FF"/>
</svg>
